<svg xmlns="http://www.w3.org/2000/svg" width="119.509" height="928.181" viewBox="0 0 119.509 928.181">
  <g id="Group_157" data-name="Group 157" transform="translate(632.432 -1048.142)">
    <g id="Group_146" data-name="Group 146" transform="translate(-631.806 1048.635)">
      <g id="Group_137" data-name="Group 137" transform="translate(0.723 416.192)">
        <path id="Path_122" data-name="Path 122" d="M-631.516,1218.151c39.46-11.1,68.678,16.837,108.349,6.011,3.465,12.324,5.069,18.545,8.458,30.832-39.579,10.937-68.86-16.649-108.332-6C-626.525,1236.709-628.156,1230.5-631.516,1218.151Z" transform="translate(631.516 -1215.493)" fill="none" stroke="#fa8b65" stroke-width="1"/>
      </g>
      <g id="Group_138" data-name="Group 138" transform="translate(1.285 317.834)">
        <path id="Path_123" data-name="Path 123" d="M-631.291,1178.165c39.776-9.9,68.079,18.854,108.132,9.264,3.088,12.419,4.495,18.685,7.553,31.066-40.008,9.76-68.356-18.735-108.129-9.244C-626.851,1196.865-628.305,1190.619-631.291,1178.165Z" transform="translate(631.291 -1176.06)" fill="none" stroke="#fa8b65" stroke-width="1"/>
      </g>
      <g id="Group_139" data-name="Group 139" transform="translate(1.709 362.335)">
        <path id="Path_124" data-name="Path 124" d="M-631.121,1195.689c39.968-9.144,67.655,20.211,107.92,11.451,2.833,12.484,4.13,18.782,6.917,31.216-40.183,8.9-67.969-20.1-107.917-11.439C-627.085,1214.474-628.382,1208.2-631.121,1195.689Z" transform="translate(631.121 -1193.901)" fill="none" stroke="#fa8b65" stroke-width="1"/>
      </g>
      <g id="Group_140" data-name="Group 140" transform="translate(0.574 269.056)">
        <path id="Path_125" data-name="Path 125" d="M-631.576,1159.345c39.395-11.484,68.747,16.3,108.389,5.176,3.569,12.294,5.223,18.5,8.717,30.777-39.549,11.172-68.994-16.148-108.381-5.193C-626.445,1177.853-628.129,1171.677-631.576,1159.345Z" transform="translate(631.576 -1156.504)" fill="none" stroke="#fa8b65" stroke-width="1"/>
      </g>
      <g id="Group_141" data-name="Group 141" transform="translate(0.831 218.189)">
        <path id="Path_126" data-name="Path 126" d="M-631.473,1138.665c39.544-10.893,68.5,17.233,108.3,6.727,3.4,12.344,4.966,18.57,8.3,30.886-39.779,10.666-68.75-17.128-108.314-6.727C-626.607,1157.243-628.211,1151.042-631.473,1138.665Z" transform="translate(631.473 -1136.111)" fill="none" stroke="#fa8b65" stroke-width="1"/>
      </g>
      <g id="Group_142" data-name="Group 142" transform="translate(1.671 159.54)">
        <path id="Path_127" data-name="Path 127" d="M-631.136,1114.415c39.9-9.219,67.735,20.081,107.913,11.216,2.9,12.472,4.2,18.755,7,31.191-40.155,9.029-68-19.942-107.93-11.2C-627.043,1133.184-628.39,1126.919-631.136,1114.415Z" transform="translate(631.136 -1112.597)" fill="none" stroke="#fa8b65" stroke-width="1"/>
      </g>
      <g id="Group_143" data-name="Group 143" transform="translate(0.185 106.734)">
        <path id="Path_128" data-name="Path 128" d="M-631.732,1094.735c39.075-12.335,69.077,14.671,108.466,2.721,3.846,12.214,5.647,18.355,9.418,30.547-39.327,12.135-69.326-14.564-108.471-2.706C-626.182,1113.133-628.028,1106.977-631.732,1094.735Z" transform="translate(631.732 -1091.427)" fill="none" stroke="#fa8b65" stroke-width="1"/>
      </g>
      <g id="Group_144" data-name="Group 144" transform="translate(0.529 51.506)">
        <path id="Path_129" data-name="Path 129" d="M-631.594,1072.167c39.32-11.538,68.7,16.051,108.4,4.856,3.617,12.292,5.263,18.485,8.8,30.74-39.51,11.319-69.024-15.9-108.4-4.854C-626.409,1090.674-628.132,1084.483-631.594,1072.167Z" transform="translate(631.594 -1069.285)" fill="none" stroke="#fa8b65" stroke-width="1"/>
      </g>
      <g id="Group_145" data-name="Group 145">
        <path id="Path_130" data-name="Path 130" d="M-631.806,1052.2c38.911-12.781,69.231,13.858,108.489,1.437,4.011,12.175,5.854,18.3,9.765,30.438-39.108,12.589-69.473-13.743-108.5-1.429C-626.044,1070.537-627.947,1064.391-631.806,1052.2Z" transform="translate(631.806 -1048.635)" fill="none" stroke="#fa8b65" stroke-width="1"/>
      </g>
    </g>
    <g id="Group_156" data-name="Group 156" transform="translate(-631.806 1517.531)">
      <g id="Group_147" data-name="Group 147" transform="translate(0.723 416.192)">
        <path id="Path_131" data-name="Path 131" d="M-631.516,1406.141c39.46-11.1,68.678,16.836,108.349,6.011,3.465,12.324,5.069,18.542,8.458,30.829-39.579,10.94-68.86-16.649-108.332-6C-626.525,1424.7-628.156,1418.492-631.516,1406.141Z" transform="translate(631.516 -1403.482)" fill="none" stroke="#fa8b65" stroke-width="1"/>
      </g>
      <g id="Group_148" data-name="Group 148" transform="translate(1.285 317.832)">
        <path id="Path_132" data-name="Path 132" d="M-631.291,1366.153c39.776-9.9,68.079,18.855,108.132,9.264,3.088,12.419,4.495,18.687,7.553,31.069-40.008,9.758-68.356-18.734-108.129-9.244C-626.851,1384.855-628.305,1378.607-631.291,1366.153Z" transform="translate(631.291 -1364.048)" fill="none" stroke="#fa8b65" stroke-width="1"/>
      </g>
      <g id="Group_149" data-name="Group 149" transform="translate(1.709 362.336)">
        <path id="Path_133" data-name="Path 133" d="M-631.121,1383.678c39.968-9.144,67.655,20.211,107.92,11.451,2.833,12.481,4.13,18.779,6.917,31.216-40.183,8.9-67.969-20.1-107.917-11.441C-627.085,1402.46-628.382,1396.184-631.121,1383.678Z" transform="translate(631.121 -1381.891)" fill="none" stroke="#fa8b65" stroke-width="1"/>
      </g>
      <g id="Group_150" data-name="Group 150" transform="translate(0.574 269.055)">
        <path id="Path_134" data-name="Path 134" d="M-631.576,1347.332c39.395-11.481,68.747,16.3,108.389,5.178,3.569,12.294,5.223,18.5,8.717,30.775-39.549,11.174-68.994-16.146-108.381-5.191C-626.445,1365.842-628.129,1359.664-631.576,1347.332Z" transform="translate(631.576 -1344.493)" fill="none" stroke="#fa8b65" stroke-width="1"/>
      </g>
      <g id="Group_151" data-name="Group 151" transform="translate(0.831 218.189)">
        <path id="Path_135" data-name="Path 135" d="M-631.473,1326.655c39.544-10.9,68.5,17.233,108.3,6.727,3.4,12.342,4.966,18.567,8.3,30.886-39.779,10.665-68.75-17.131-108.314-6.73C-626.607,1345.232-628.211,1339.031-631.473,1326.655Z" transform="translate(631.473 -1324.1)" fill="none" stroke="#fa8b65" stroke-width="1"/>
      </g>
      <g id="Group_152" data-name="Group 152" transform="translate(1.671 159.541)">
        <path id="Path_136" data-name="Path 136" d="M-631.136,1302.4c39.9-9.219,67.735,20.081,107.913,11.214,2.9,12.474,4.2,18.757,7,31.193-40.155,9.029-68-19.944-107.93-11.2C-627.043,1321.171-628.39,1314.906-631.136,1302.4Z" transform="translate(631.136 -1300.586)" fill="none" stroke="#fa8b65" stroke-width="1"/>
      </g>
      <g id="Group_153" data-name="Group 153" transform="translate(0.185 106.735)">
        <path id="Path_137" data-name="Path 137" d="M-631.732,1282.724c39.075-12.334,69.077,14.671,108.466,2.719,3.846,12.214,5.647,18.358,9.418,30.547-39.327,12.135-69.326-14.562-108.471-2.7C-626.182,1301.119-628.028,1294.966-631.732,1282.724Z" transform="translate(631.732 -1279.416)" fill="none" stroke="#fa8b65" stroke-width="1"/>
      </g>
      <g id="Group_154" data-name="Group 154" transform="translate(0.529 51.507)">
        <path id="Path_138" data-name="Path 138" d="M-631.594,1260.155c39.32-11.538,68.7,16.051,108.4,4.854,3.617,12.294,5.263,18.485,8.8,30.74-39.51,11.322-69.024-15.9-108.4-4.854C-626.409,1278.661-628.132,1272.472-631.594,1260.155Z" transform="translate(631.594 -1257.273)" fill="none" stroke="#fa8b65" stroke-width="1"/>
      </g>
      <g id="Group_155" data-name="Group 155">
        <path id="Path_139" data-name="Path 139" d="M-631.806,1240.191c38.911-12.783,69.231,13.858,108.489,1.435,4.011,12.177,5.854,18.3,9.765,30.44-39.108,12.589-69.473-13.744-108.5-1.429C-626.044,1258.524-627.947,1252.381-631.806,1240.191Z" transform="translate(631.806 -1236.624)" fill="none" stroke="#fa8b65" stroke-width="1"/>
      </g>
    </g>
  </g>
</svg>
