<svg xmlns="http://www.w3.org/2000/svg" width="542" height="542" viewBox="0 0 542 542">
  <g id="Group_227" data-name="Group 227" transform="translate(-1305.633 434.202)">
    <g id="Group_162" data-name="Group 162" transform="translate(1390.222 -349.612)">
      <g id="Group_161" data-name="Group 161" transform="translate(0 0)">
        <path id="Path_164" data-name="Path 164" d="M1659.174,103.472c-101.537,0-184.14-82.6-184.14-184.135s82.6-184.135,184.14-184.135S1843.3-182.2,1843.3-80.663,1760.7,103.472,1659.174,103.472Zm0-334.062c-82.669,0-149.927,67.257-149.927,149.927S1576.5,69.264,1659.174,69.264,1809.1,2.006,1809.1-80.663,1741.844-230.589,1659.174-230.589Z" transform="translate(-1472.76 267.073)" fill="#d1e1e8"/>
        <path id="Path_165" data-name="Path 165" d="M1657.012-264.685c100.277,0,181.859,81.582,181.859,181.861S1757.289,99.037,1657.012,99.037,1475.149,17.455,1475.149-82.824s81.581-181.861,181.863-181.861m0,334.06c83.924,0,152.2-68.275,152.2-152.2s-68.273-152.2-152.2-152.2-152.2,68.276-152.2,152.2,68.277,152.2,152.2,152.2m0-338.609c-102.787,0-186.412,83.623-186.412,186.41s83.624,186.41,186.412,186.41S1843.42,19.963,1843.42-82.824s-83.623-186.41-186.408-186.41Zm0,334.06c-81.416,0-147.652-66.235-147.652-147.649s66.236-147.65,147.652-147.65,147.647,66.235,147.647,147.65S1738.425,64.826,1657.012,64.826Z" transform="translate(-1470.6 269.234)" fill="#f9fafb"/>
      </g>
    </g>
    <g id="Group_164" data-name="Group 164" transform="translate(1550.254 -189.581)">
      <g id="Group_163" data-name="Group 163" transform="translate(0 0)">
        <path id="Path_166" data-name="Path 166" d="M1811.235,95.5A24.106,24.106,0,1,1,1835.342,71.4,24.131,24.131,0,0,1,1811.235,95.5Z" transform="translate(-1784.857 -45.019)" fill="#fa8b65"/>
        <path id="Path_167" data-name="Path 167" d="M1809.073,47.408a21.83,21.83,0,1,1-21.83,21.83,21.831,21.831,0,0,1,21.83-21.83m0-4.549a26.379,26.379,0,1,0,26.38,26.38,26.409,26.409,0,0,0-26.38-26.38Z" transform="translate(-1782.694 -42.859)" fill="#f9fafb"/>
      </g>
    </g>
    <g id="Group_178" data-name="Group 178" transform="translate(1550.492 -434.202)">
      <g id="Group_177" data-name="Group 177">
        <g id="Group_168" data-name="Group 168" transform="translate(15.393 15.453)">
          <g id="Group_167" data-name="Group 167">
            <rect id="Rectangle_47" data-name="Rectangle 47" width="21.498" height="202.132" fill="#364b76"/>
          </g>
        </g>
        <g id="Group_170" data-name="Group 170">
          <g id="Group_169" data-name="Group 169">
            <path id="Path_169" data-name="Path 169" d="M1811.459-363.692c-13.221,0-23.866-22.578-23.866-41.268,0-15.994,8.477-24.8,23.866-24.8s23.866,8.81,23.866,24.8C1835.325-386.269,1824.68-363.692,1811.459-363.692Z" transform="translate(-1785.319 432.039)" fill="#364b76"/>
            <path id="Path_170" data-name="Path 170" d="M1809.3-429.653c11.925,0,21.592,5.54,21.592,22.529s-9.667,38.993-21.592,38.993-21.592-22-21.592-38.993,9.667-22.529,21.592-22.529m0-4.549c-16.613,0-26.141,9.869-26.141,27.078,0,17.754,10.183,43.542,26.141,43.542s26.141-25.789,26.141-43.542c0-17.209-9.528-27.078-26.141-27.078Z" transform="translate(-1783.159 434.202)" fill="#364b76"/>
          </g>
        </g>
        <g id="Group_173" data-name="Group 173" transform="translate(13.118 322.138)">
          <g id="Group_172" data-name="Group 172" transform="translate(0 0)">
            <g id="Group_171" data-name="Group 171" transform="translate(2.275 2.275)">
              <rect id="Rectangle_48" data-name="Rectangle 48" width="21.498" height="202.133" fill="#364b76"/>
            </g>
            <path id="Path_171" data-name="Path 171" d="M1830.241,198.584V396.168h-16.949V198.584h16.949m4.549-4.549h-26.048V400.717h26.048V194.035Z" transform="translate(-1808.742 -194.035)" fill="#364b76"/>
          </g>
        </g>
        <g id="Group_176" data-name="Group 176" transform="translate(0 471.379)">
          <g id="Group_175" data-name="Group 175" transform="translate(0 0)">
            <g id="Group_174" data-name="Group 174" transform="translate(2.274 2.277)">
              <path id="Path_172" data-name="Path 172" d="M1811.459,555.593c-15.389,0-23.866-8.809-23.866-24.8,0-18.69,10.645-41.263,23.866-41.263s23.866,22.573,23.866,41.263C1835.325,546.784,1826.848,555.593,1811.459,555.593Z" transform="translate(-1787.593 -489.527)" fill="#364b76"/>
            </g>
            <path id="Path_173" data-name="Path 173" d="M1809.3,489.635c11.925,0,21.592,22,21.592,38.993s-9.667,22.529-21.592,22.529-21.592-5.54-21.592-22.529,9.667-38.993,21.592-38.993m0-4.549c-15.957,0-26.141,25.789-26.141,43.543,0,17.208,9.528,27.078,26.141,27.078s26.141-9.87,26.141-27.078c0-17.754-10.184-43.543-26.141-43.543Z" transform="translate(-1783.159 -485.086)" fill="#364b76"/>
          </g>
        </g>
      </g>
    </g>
    <g id="Group_192" data-name="Group 192" transform="translate(1305.633 -189.343)">
      <g id="Group_191" data-name="Group 191" transform="translate(0 0)">
        <g id="Group_181" data-name="Group 181" transform="translate(322.137 13.117)">
          <g id="Group_180" data-name="Group 180">
            <g id="Group_179" data-name="Group 179" transform="translate(2.275 2.272)">
              <rect id="Rectangle_49" data-name="Rectangle 49" width="202.133" height="21.503" fill="#364b76"/>
            </g>
            <path id="Path_174" data-name="Path 174" d="M2136,73.454V90.4H1938.417V73.454H2136m4.549-4.549H1933.868V94.953H2140.55V68.9Z" transform="translate(-1933.868 -68.905)" fill="#364b76"/>
          </g>
        </g>
        <g id="Group_184" data-name="Group 184" transform="translate(471.38)">
          <g id="Group_183" data-name="Group 183">
            <g id="Group_182" data-name="Group 182" transform="translate(2.275 2.275)">
              <path id="Path_175" data-name="Path 175" d="M2270.627,95.492c-18.69,0-41.268-10.645-41.268-23.866s22.578-23.866,41.268-23.866c15.994,0,24.8,8.477,24.8,23.866S2286.621,95.492,2270.627,95.492Z" transform="translate(-2229.359 -47.76)" fill="#364b76"/>
            </g>
            <path id="Path_176" data-name="Path 176" d="M2268.463,47.873c16.99,0,22.53,9.667,22.53,21.592s-5.54,21.591-22.53,21.591-38.992-9.667-38.992-21.591,22-21.592,38.992-21.592m0-4.549c-17.753,0-43.541,10.184-43.541,26.141s25.788,26.14,43.541,26.14c17.208,0,27.079-9.528,27.079-26.14s-9.87-26.141-27.079-26.141Z" transform="translate(-2224.922 -43.324)" fill="#364b76"/>
          </g>
        </g>
        <g id="Group_187" data-name="Group 187" transform="translate(13.179 13.117)">
          <g id="Group_186" data-name="Group 186">
            <g id="Group_185" data-name="Group 185" transform="translate(2.273 2.272)">
              <rect id="Rectangle_50" data-name="Rectangle 50" width="202.132" height="21.503" fill="#364b76"/>
            </g>
            <path id="Path_177" data-name="Path 177" d="M1533.467,73.454V90.4H1335.883V73.454h197.583m4.549-4.549H1331.334V94.953h206.682V68.9Z" transform="translate(-1331.334 -68.905)" fill="#364b76"/>
          </g>
        </g>
        <g id="Group_190" data-name="Group 190">
          <g id="Group_189" data-name="Group 189">
            <g id="Group_188" data-name="Group 188" transform="translate(2.275 2.275)">
              <path id="Path_178" data-name="Path 178" d="M1334.873,95.492c-15.994,0-24.8-8.477-24.8-23.866s8.809-23.866,24.8-23.866c18.69,0,41.268,10.645,41.268,23.866S1353.563,95.492,1334.873,95.492Z" transform="translate(-1310.07 -47.76)" fill="#364b76"/>
            </g>
            <path id="Path_179" data-name="Path 179" d="M1332.711,47.873c16.989,0,38.993,9.667,38.993,21.592s-22,21.591-38.993,21.591-22.528-9.667-22.528-21.591,5.54-21.592,22.528-21.592m0-4.549c-17.208,0-27.078,9.528-27.078,26.141s9.869,26.14,27.078,26.14c17.753,0,43.542-10.183,43.542-26.14s-25.789-26.141-43.542-26.141Z" transform="translate(-1305.633 -43.324)" fill="#364b76"/>
          </g>
        </g>
      </g>
    </g>
    <g id="Group_206" data-name="Group 206" transform="translate(1376.316 -363.519)">
      <g id="Group_205" data-name="Group 205">
        <g id="Group_195" data-name="Group 195" transform="translate(227.052 8.802)">
          <g id="Group_194" data-name="Group 194">
            <g id="Group_193" data-name="Group 193" transform="translate(3.217 3.218)">
              <path id="Path_180" data-name="Path 180" d="M1892.55-129.769l143.143-143.147,15.2,15.2L1907.748-114.566Z" transform="translate(-1892.55 272.916)" fill="#364b76"/>
            </g>
            <path id="Path_181" data-name="Path 181" d="M2032.638-272.758l11.984,11.984L1904.694-120.842l-11.983-11.984,139.927-139.932m0-6.433-3.217,3.217L1889.493-136.042l-3.216,3.217,3.216,3.217,11.984,11.983,3.217,3.218,3.218-3.218,139.928-139.932,3.216-3.217-3.216-3.217-11.984-11.984-3.218-3.217Z" transform="translate(-1886.277 279.191)" fill="#364b76"/>
          </g>
        </g>
        <g id="Group_198" data-name="Group 198" transform="translate(337.319)">
          <g id="Group_197" data-name="Group 197">
            <g id="Group_196" data-name="Group 196" transform="translate(2.332 2.276)">
              <path id="Path_182" data-name="Path 182" d="M2121.13-233.154c-4.829,0-8.632-1.355-11.3-4.021-9.347-9.348-.911-32.841,12.306-46.057,5.762-5.767,11.716-8.686,17.686-8.686,5.776,0,11.4,2.7,16.727,8.024,5.016,5.016,7.708,10.312,8,15.74.338,6.3-2.576,12.586-8.663,18.672C2146.431-240.022,2131.81-233.154,2121.13-233.154Z" transform="translate(-2105.869 291.917)" fill="#364b76"/>
            </g>
            <path id="Path_183" data-name="Path 183" d="M2137.612-291.807c5.581,0,10.671,2.913,15.117,7.358,8.432,8.432,11.35,19.186-.662,31.2-8.689,8.689-22.81,15.657-33.15,15.657-3.956,0-7.356-1.019-9.69-3.352-8.432-8.432.292-30.826,12.306-42.84,5.678-5.679,11.077-8.021,16.08-8.022m0-4.549h0c-6.6,0-13.093,3.147-19.3,9.354a64.283,64.283,0,0,0-14.932,24.584c-3.469,10.759-2.535,19.527,2.627,24.69,3.064,3.065,7.528,4.685,12.907,4.685,11.228,0,26.522-7.145,36.366-16.989,12.168-12.168,12.41-25.885.664-37.632-5.767-5.767-11.935-8.691-18.333-8.691Z" transform="translate(-2101.322 296.356)" fill="#364b76"/>
          </g>
        </g>
        <g id="Group_201" data-name="Group 201" transform="translate(8.802 227.269)">
          <g id="Group_200" data-name="Group 200" transform="translate(0 0)">
            <g id="Group_199" data-name="Group 199" transform="translate(3.217 3.217)">
              <rect id="Rectangle_51" data-name="Rectangle 51" width="202.133" height="21.497" transform="translate(0 142.929) rotate(-45)" fill="#364b76"/>
            </g>
            <path id="Path_184" data-name="Path 184" d="M1606.792,153.3l11.983,11.984L1479.063,305l-11.984-11.984L1606.792,153.3m0-6.434-3.217,3.217L1463.862,289.8l-3.217,3.217,3.217,3.217,11.984,11.984,3.217,3.217,3.217-3.217L1621.993,168.5l3.216-3.217-3.216-3.217-11.984-11.984-3.217-3.217Z" transform="translate(-1460.645 -146.866)" fill="#364b76"/>
          </g>
        </g>
        <g id="Group_204" data-name="Group 204" transform="translate(0 337.322)">
          <g id="Group_203" data-name="Group 203">
            <g id="Group_202" data-name="Group 202" transform="translate(2.271 2.273)">
              <path id="Path_185" data-name="Path 185" d="M1472.662,424.687c-5.775,0-11.4-2.7-16.726-8.023-5.016-5.016-7.708-10.312-8-15.741-.337-6.3,2.577-12.586,8.663-18.672,9.458-9.458,24.08-16.327,34.759-16.327,4.829,0,8.632,1.355,11.3,4.021,9.348,9.347.915,32.841-12.3,46.058-5.762,5.762-11.715,8.685-17.691,8.685Z" transform="translate(-1447.908 -365.924)" fill="#364b76"/>
            </g>
            <path id="Path_186" data-name="Path 186" d="M1489.2,366.041c3.956,0,7.358,1.02,9.691,3.352,8.432,8.432-.291,30.827-12.3,42.84-5.679,5.679-11.076,8.022-16.081,8.022-5.58,0-10.672-2.914-15.117-7.359-8.432-8.431-11.349-19.185.663-31.2,8.689-8.689,22.81-15.657,33.149-15.657m0-4.549c-11.227,0-26.521,7.145-36.366,16.99-6.562,6.562-9.7,13.426-9.323,20.4.322,6.009,3.237,11.8,8.661,17.229,5.767,5.767,11.935,8.691,18.333,8.691,6.6,0,13.091-3.147,19.3-9.354,12.553-12.554,23.588-37.99,12.3-49.273-3.065-3.065-7.528-4.685-12.908-4.685Z" transform="translate(-1443.479 -361.492)" fill="#364b76"/>
          </g>
        </g>
      </g>
    </g>
    <g id="Group_220" data-name="Group 220" transform="translate(1376.367 -363.519)">
      <g id="Group_219" data-name="Group 219">
        <g id="Group_209" data-name="Group 209" transform="translate(227.1 227.149)">
          <g id="Group_208" data-name="Group 208" transform="translate(0 0)">
            <g id="Group_207" data-name="Group 207" transform="translate(3.225 3.209)">
              <rect id="Rectangle_52" data-name="Rectangle 52" width="21.497" height="202.299" transform="translate(0 15.198) rotate(-44.991)" fill="#364b76"/>
            </g>
            <path id="Path_187" data-name="Path 187" d="M1904.887,153.066,2044.716,292.9l-11.984,11.984L1892.9,165.05l11.984-11.984m0-6.434-3.218,3.217-11.983,11.984-3.217,3.217,3.217,3.217L2029.515,308.1l3.217,3.217,3.218-3.217,11.984-11.984,3.217-3.217-3.217-3.217L1908.1,149.849l-3.217-3.217Z" transform="translate(-1886.47 -146.632)" fill="#364b76"/>
          </g>
        </g>
        <g id="Group_212" data-name="Group 212" transform="translate(337.263 337.322)">
          <g id="Group_211" data-name="Group 211">
            <g id="Group_210" data-name="Group 210" transform="translate(2.337 2.273)">
              <path id="Path_188" data-name="Path 188" d="M2139.824,424.687c-5.971,0-11.924-2.919-17.686-8.685-13.217-13.217-21.653-36.71-12.306-46.058,2.666-2.665,6.469-4.021,11.3-4.021,10.68,0,25.3,6.868,34.759,16.327,6.087,6.087,9,12.368,8.663,18.672-.293,5.429-2.985,10.724-8,15.741C2151.225,421.991,2145.6,424.687,2139.824,424.687Z" transform="translate(-2105.869 -365.924)" fill="#364b76"/>
            </g>
            <path id="Path_189" data-name="Path 189" d="M2118.911,366.041c10.34,0,24.46,6.969,33.15,15.657,12.012,12.013,9.094,22.766.662,31.2-4.445,4.446-9.536,7.359-15.117,7.359-5,0-10.4-2.343-16.08-8.022-12.014-12.013-20.737-34.408-12.305-42.84,2.334-2.333,5.735-3.352,9.69-3.352m0-4.549h0c-5.38,0-9.843,1.62-12.908,4.685-11.283,11.283-.249,36.72,12.3,49.273,6.207,6.207,12.7,9.354,19.3,9.354,6.4,0,12.568-2.924,18.335-8.691,11.746-11.747,11.5-25.463-.664-37.631-9.844-9.845-25.138-16.99-36.365-16.99Z" transform="translate(-2101.311 -361.492)" fill="#364b76"/>
          </g>
        </g>
        <g id="Group_215" data-name="Group 215" transform="translate(8.751 8.802)">
          <g id="Group_214" data-name="Group 214">
            <g id="Group_213" data-name="Group 213" transform="translate(3.226 3.207)">
              <rect id="Rectangle_53" data-name="Rectangle 53" width="21.497" height="202.133" transform="translate(0 15.198) rotate(-44.991)" fill="#364b76"/>
            </g>
            <path id="Path_190" data-name="Path 190" d="M1479.063-272.758l139.712,139.713-11.983,11.983L1467.079-260.774l11.984-11.984m0-6.433-3.217,3.217-11.984,11.984-3.217,3.217,3.217,3.217,139.713,139.713,3.217,3.217,3.217-3.217,11.984-11.984,3.216-3.217-3.216-3.217L1482.28-275.974l-3.217-3.217Z" transform="translate(-1460.645 279.191)" fill="#364b76"/>
          </g>
        </g>
        <g id="Group_218" data-name="Group 218">
          <g id="Group_217" data-name="Group 217">
            <g id="Group_216" data-name="Group 216" transform="translate(2.22 2.276)">
              <path id="Path_191" data-name="Path 191" d="M1491.357-233.154c-10.68,0-25.3-6.868-34.759-16.327-6.086-6.087-9-12.368-8.663-18.672.293-5.429,2.985-10.724,8-15.74,5.327-5.327,10.951-8.024,16.726-8.024,5.976,0,11.929,2.919,17.691,8.686,13.217,13.217,21.65,36.709,12.3,46.057-2.665,2.665-6.469,4.021-11.3,4.021Z" transform="translate(-1447.908 291.917)" fill="#364b76"/>
            </g>
            <path id="Path_192" data-name="Path 192" d="M1470.552-291.807c5,0,10.4,2.343,16.081,8.022,12.014,12.013,20.737,34.408,12.3,42.84-2.333,2.334-5.735,3.352-9.691,3.352-10.339,0-24.46-6.968-33.149-15.657-12.013-12.013-9.095-22.766-.663-31.2,4.446-4.446,9.536-7.358,15.117-7.358m0-4.549c-6.4,0-12.567,2.924-18.334,8.691-11.747,11.747-11.505,25.463.662,37.632,9.845,9.845,25.139,16.989,36.366,16.989,5.379,0,9.843-1.62,12.908-4.685,5.163-5.163,6.1-13.931,2.627-24.69A64.283,64.283,0,0,0,1489.851-287c-6.207-6.206-12.7-9.354-19.3-9.354Z" transform="translate(-1443.578 296.356)" fill="#364b76"/>
          </g>
        </g>
      </g>
    </g>
    <g id="Group_222" data-name="Group 222" transform="translate(1415.919 -323.915)">
      <g id="Group_221" data-name="Group 221" transform="translate(0 0)">
        <path id="Path_193" data-name="Path 193" d="M1683.591,102.193c-87.365,0-158.443-71.074-158.443-158.439s71.078-158.438,158.443-158.438,158.435,71.073,158.435,158.438S1770.951,102.193,1683.591,102.193Zm0-303.852c-80.181,0-145.417,65.232-145.417,145.413S1603.41,89.168,1683.591,89.168,1829,23.936,1829-56.246,1763.768-201.659,1683.591-201.659Z" transform="translate(-1522.874 216.959)" fill="#fa8b65"/>
        <path id="Path_194" data-name="Path 194" d="M1681.429-214.57c86.108,0,156.161,70.055,156.161,156.164S1767.537,97.756,1681.429,97.756,1525.263,27.7,1525.263-58.406,1595.32-214.57,1681.429-214.57m0,303.852c81.437,0,147.687-66.252,147.687-147.688S1762.866-206.1,1681.429-206.1s-147.691,66.252-147.691,147.689,66.254,147.688,147.691,147.688m0-308.4c-88.619,0-160.715,72.1-160.715,160.714s72.1,160.712,160.715,160.712S1842.14,30.21,1842.14-58.406,1770.045-219.12,1681.429-219.12Zm0,303.853c-78.928,0-143.142-64.212-143.142-143.139s64.213-143.14,143.142-143.14,143.137,64.213,143.137,143.14S1760.355,84.733,1681.429,84.733Z" transform="translate(-1520.714 219.12)" fill="#f9fafb"/>
      </g>
    </g>
    <g id="Group_224" data-name="Group 224" transform="translate(1507.92 -231.913)">
      <g id="Group_223" data-name="Group 223">
        <path id="Path_195" data-name="Path 195" d="M1771.013,97.612a66.435,66.435,0,1,1,66.431-66.435A66.513,66.513,0,0,1,1771.013,97.612Zm0-111.373a44.938,44.938,0,1,0,44.934,44.938A44.992,44.992,0,0,0,1771.013-13.761Z" transform="translate(-1702.297 37.535)" fill="#f9fafb"/>
        <path id="Path_196" data-name="Path 196" d="M1768.849-35.148a64.162,64.162,0,1,1-64.165,64.162,64.234,64.234,0,0,1,64.165-64.162m0,111.375a47.213,47.213,0,1,0-47.215-47.213,47.266,47.266,0,0,0,47.215,47.213m0-115.925a68.712,68.712,0,1,0,68.71,68.712,68.791,68.791,0,0,0-68.71-68.712Zm0,111.375a42.664,42.664,0,1,1,42.661-42.664,42.713,42.713,0,0,1-42.661,42.664Z" transform="translate(-1700.135 39.697)" fill="#d1e1e8"/>
      </g>
    </g>
  </g>
</svg>
