<svg xmlns="http://www.w3.org/2000/svg" width="272.415" height="272.415" viewBox="0 0 272.415 272.415">
  <g id="Group_133" data-name="Group 133" transform="translate(2285.201 86.552)">
    <circle id="Ellipse_1" data-name="Ellipse 1" cx="136.208" cy="136.208" r="136.208" transform="translate(-2285.201 -86.552)" fill="#364b76"/>
    <g id="Group_80" data-name="Group 80" transform="translate(-2242.922 -65.242)">
      <g id="Group_28" data-name="Group 28" transform="translate(0 0)">
        <g id="Group_27" data-name="Group 27">
          <path id="Path_26" data-name="Path 26" d="M-2156.6,71.468l-2.063,2.481-2.148-1.787-1.982,2.383,8.263,6.871,1.771-2.129,2.442,2.03-5.88,7.072-2.442-2.03,1.771-2.13-8.263-6.871-1.982,2.383,2.149,1.787-2.062,2.481-4.728-3.931,10.428-12.541Z" transform="translate(2171.756 -31.421)" fill="#fff"/>
          <path id="Path_27" data-name="Path 27" d="M-2114.519,56.83l-5.176,4.425-2.063-2.414,1.159-.991-2.08-2.433c-1.254-1.468-2.665-1.632-3.92-.559a3.682,3.682,0,0,0-1.035,2.857l3.038,3.553,1.313-1.123,2.063,2.414-5.33,4.556-2.063-2.414,1.333-1.139-7.594-8.883-1.332,1.139-2.064-2.414,4.017-3.434,4.391,5.136a5.266,5.266,0,0,1,1.8-3.21c2.434-2.08,5.558-1.709,7.869.994l2.279,2.665,1.333-1.139Z" transform="translate(2150.75 -20.401)" fill="#fff"/>
          <path id="Path_28" data-name="Path 28" d="M-2072.994,32.5l-7.494,4.689a2.886,2.886,0,0,0,3.717.192,2.214,2.214,0,0,0,1.238-1.853l3.123-1.954A5.764,5.764,0,0,1-2075.255,40a6.266,6.266,0,0,1-8.958-2.008,6.146,6.146,0,0,1,2.038-8.767,5.848,5.848,0,0,1,8.424,1.922A10.519,10.519,0,0,1-2072.994,32.5Zm-8.882,2.471,4.738-2.964a2.619,2.619,0,0,0-3.509-.532A2.892,2.892,0,0,0-2081.876,34.969Z" transform="translate(2117.493 -6.737)" fill="#fff"/>
          <path id="Path_29" data-name="Path 29" d="M-2020.273,2.072l-6.575,2.285-.942-2.711-3.02-1.882-2.784.967.809,2.328,1.847-.643,1.043,3-7.175,2.493-1.042-3,1.871-.651-3.586-10.317-1.871.65-1.043-3,8.566-2.977c3.792-1.317,7.063.047,8.239,3.43a5.322,5.322,0,0,1-1.38,5.778l3.457,2.133,2.543-.884Zm-11.1-5.394c1.7-.592,2.537-1.985,2.028-3.448-.517-1.488-2.026-2.039-3.73-1.447l-3.239,1.126,1.7,4.895Z" transform="translate(2090.822 18.399)" fill="#fff"/>
          <path id="Path_30" data-name="Path 30" d="M-1971.5-.457l-5.187.859-.145-.877a5.333,5.333,0,0,1-3.226,1.821c-3.157.523-5.64-1.409-6.217-4.893l-.576-3.483-1.7.282-.519-3.133,5.188-.859,1.042,6.29c.315,1.9,1.438,2.774,3.067,2.5a3.638,3.638,0,0,0,2.383-1.939l-.759-4.586-1.729.286-.519-3.133,5.188-.859,1.469,8.872,1.729-.286Z" transform="translate(2057.159 18.584)" fill="#fff"/>
          <path id="Path_31" data-name="Path 31" d="M-1927.306-11.354l-5.283.048-.006-.711a6.217,6.217,0,0,1-3.446,1,6.185,6.185,0,0,1-6.128-6.3,6.163,6.163,0,0,1,6.013-6.38,6.214,6.214,0,0,1,3.463.934l-.031-3.4-1.727.016-.029-3.175,5.258-.048.135,14.859,1.753-.016Zm-5.319-3.864-.038-4.242a3.858,3.858,0,0,0-2.882-1.244,3.2,3.2,0,0,0-3.094,3.356,3.223,3.223,0,0,0,3.155,3.325A4.129,4.129,0,0,0-1932.625-15.218Z" transform="translate(2027.733 29.372)" fill="#fff"/>
          <path id="Path_32" data-name="Path 32" d="M-1885.433-6.976l-5.228-.768.1-.7a6.215,6.215,0,0,1-3.559.452,6.185,6.185,0,0,1-5.084-7.166,6.164,6.164,0,0,1,6.927-5.377A6.213,6.213,0,0,1-1889-19.081l.5-3.368-1.709-.251.462-3.142,5.2.764-2.159,14.705,1.734.255Zm-4.66-4.639.617-4.2a3.858,3.858,0,0,0-2.656-1.674,3.2,3.2,0,0,0-3.576,2.839,3.224,3.224,0,0,0,2.6,3.772A4.129,4.129,0,0,0-1890.093-11.615Z" transform="translate(2000.824 27.158)" fill="#fff"/>
          <path id="Path_33" data-name="Path 33" d="M-1845.568,6.657l-8.474-2.516a2.886,2.886,0,0,0,2.315,2.913,2.214,2.214,0,0,0,2.208-.3l3.531,1.048a5.765,5.765,0,0,1-6.7,2.119,6.265,6.265,0,0,1-4.423-8.044,6.145,6.145,0,0,1,7.92-4.274,5.848,5.848,0,0,1,4.134,7.587A10.569,10.569,0,0,1-1845.568,6.657Zm-7.73-5.024,5.358,1.59a2.619,2.619,0,0,0-1.924-2.982A2.891,2.891,0,0,0-1853.3,1.633Z" transform="translate(1974.558 12.637)" fill="#fff"/>
          <path id="Path_34" data-name="Path 34" d="M-1814.535,12.75a25,25,0,0,0-4.706-1.262l-1.91,4.544,2.53,1.063-1.231,2.927-7.4-3.111,1.23-2.927,1.616.679,2.255-5.363-1.616-.679,1.23-2.927,4.872,2.048-.473,1.124a8.188,8.188,0,0,1,5,.559Z" transform="translate(1955.643 7.374)" fill="#fff"/>
          <path id="Path_35" data-name="Path 35" d="M-1770.751,41.12a9.44,9.44,0,0,1-3.062-1.356c-2.458-1.626-2.92-4.429-1.182-7.056l2.284-3.454-2.31-1.528,1.752-2.649,2.309,1.528,2-3.03,2.946,1.948-2,3.03,3.454,2.285-1.752,2.649-3.454-2.284-2.27,3.433a1.851,1.851,0,0,0,.651,2.837,8.688,8.688,0,0,0,1.92.874Z" transform="translate(1923.515 -3.843)" fill="#fff"/>
          <path id="Path_36" data-name="Path 36" d="M-1744.068,63.306a6.385,6.385,0,0,1-9.212.611,6.392,6.392,0,0,1-.846-9.212,6.326,6.326,0,0,1,9.166-.517A6.319,6.319,0,0,1-1744.068,63.306Zm-2.625-2.245a3.1,3.1,0,0,0-.314-4.48,3.083,3.083,0,0,0-4.474.385,3.154,3.154,0,0,0,.248,4.557A3.169,3.169,0,0,0-1746.693,61.061Z" transform="translate(1910.761 -21.97)" fill="#fff"/>
          <path id="Path_37" data-name="Path 37" d="M-1716.6,91.614a6.388,6.388,0,0,1-9.208-.7,6.394,6.394,0,0,1,.469-9.24,6.327,6.327,0,0,1,9.147.787A6.32,6.32,0,0,1-1716.6,91.614Zm-2.281-2.595a3.1,3.1,0,0,0,.324-4.479,3.084,3.084,0,0,0-4.484-.253,3.154,3.154,0,0,0-.4,4.546A3.169,3.169,0,0,0-1718.882,89.02Z" transform="translate(1893.102 -39.284)" fill="#fff"/>
          <path id="Path_38" data-name="Path 38" d="M-1706.022,111.21l-4.037-5.732,2.6-1.828,1.009,1.433,9.555-6.728-1.01-1.433,2.6-1.828,3.042,4.32-12.151,8.556.995,1.412Z" transform="translate(1882.126 -48.707)" fill="#fff"/>
        </g>
      </g>
      <g id="Group_79" data-name="Group 79" transform="translate(18.489 42.976)">
        <g id="Group_78" data-name="Group 78" transform="translate(0 0)">
          <g id="Group_30" data-name="Group 30" transform="translate(22.862 22.862)">
            <g id="Group_29" data-name="Group 29">
              <path id="Path_39" data-name="Path 39" d="M-2009.385,248.471a49.823,49.823,0,0,1-49.767-49.767,49.823,49.823,0,0,1,49.767-49.767,49.823,49.823,0,0,1,49.766,49.767A49.823,49.823,0,0,1-2009.385,248.471Zm0-90.287A40.566,40.566,0,0,0-2049.9,198.7a40.567,40.567,0,0,0,40.52,40.521,40.566,40.566,0,0,0,40.52-40.521A40.566,40.566,0,0,0-2009.385,158.184Z" transform="translate(2059.767 -148.323)" fill="#d1e1e8"/>
              <path id="Path_40" data-name="Path 40" d="M-2010.419,148.518a49.207,49.207,0,0,1,49.151,49.152,49.207,49.207,0,0,1-49.151,49.152,49.207,49.207,0,0,1-49.152-49.152,49.207,49.207,0,0,1,49.152-49.152m0,90.287a41.181,41.181,0,0,0,41.134-41.135,41.181,41.181,0,0,0-41.134-41.136,41.182,41.182,0,0,0-41.135,41.136,41.182,41.182,0,0,0,41.135,41.135m0-91.516A50.439,50.439,0,0,0-2060.8,197.67a50.439,50.439,0,0,0,50.382,50.381,50.438,50.438,0,0,0,50.381-50.381,50.438,50.438,0,0,0-50.381-50.381Zm0,90.287a39.951,39.951,0,0,1-39.906-39.905,39.951,39.951,0,0,1,39.906-39.906,39.95,39.95,0,0,1,39.9,39.906,39.951,39.951,0,0,1-39.9,39.905Z" transform="translate(2060.801 -147.289)" fill="#f9fafb"/>
            </g>
          </g>
          <g id="Group_32" data-name="Group 32" transform="translate(66.114 66.114)">
            <g id="Group_31" data-name="Group 31">
              <path id="Path_41" data-name="Path 41" d="M-1936.58,278.023a6.522,6.522,0,0,1-6.514-6.515,6.521,6.521,0,0,1,6.514-6.515,6.522,6.522,0,0,1,6.515,6.515A6.522,6.522,0,0,1-1936.58,278.023Z" transform="translate(1943.71 -264.378)" fill="#fa8b65"/>
              <path id="Path_42" data-name="Path 42" d="M-1937.616,264.573a5.9,5.9,0,0,1,5.9,5.9,5.9,5.9,0,0,1-5.9,5.9,5.9,5.9,0,0,1-5.9-5.9,5.9,5.9,0,0,1,5.9-5.9m0-1.229a7.138,7.138,0,0,0-7.13,7.13,7.138,7.138,0,0,0,7.13,7.129,7.138,7.138,0,0,0,7.13-7.129,7.138,7.138,0,0,0-7.13-7.13Z" transform="translate(1944.746 -263.344)" fill="#f9fafb"/>
            </g>
          </g>
          <g id="Group_46" data-name="Group 46" transform="translate(66.179)">
            <g id="Group_45" data-name="Group 45">
              <g id="Group_36" data-name="Group 36" transform="translate(4.16 4.176)">
                <g id="Group_35" data-name="Group 35">
                  <rect id="Rectangle_1" data-name="Rectangle 1" width="5.81" height="54.631" fill="#f9fafb"/>
                </g>
              </g>
              <g id="Group_38" data-name="Group 38">
                <g id="Group_37" data-name="Group 37">
                  <path id="Path_44" data-name="Path 44" d="M-1936.474,105.451c-3.573,0-6.45-6.1-6.45-11.154,0-4.323,2.291-6.7,6.45-6.7s6.45,2.381,6.45,6.7C-1930.023,99.349-1932.9,105.451-1936.474,105.451Z" transform="translate(1943.538 -86.979)" fill="#f9fafb"/>
                  <path id="Path_45" data-name="Path 45" d="M-1937.507,87.173c3.223,0,5.836,1.5,5.836,6.089s-2.613,10.539-5.836,10.539-5.835-5.947-5.835-10.539,2.612-6.089,5.835-6.089m0-1.229c-4.49,0-7.065,2.667-7.065,7.318,0,4.8,2.752,11.768,7.065,11.768s7.065-6.97,7.065-11.768c0-4.651-2.575-7.318-7.065-7.318Z" transform="translate(1944.572 -85.944)" fill="#f9fafb"/>
                </g>
              </g>
              <g id="Group_41" data-name="Group 41" transform="translate(3.545 87.065)">
                <g id="Group_40" data-name="Group 40">
                  <g id="Group_39" data-name="Group 39" transform="translate(0.615 0.615)">
                    <rect id="Rectangle_2" data-name="Rectangle 2" width="5.81" height="54.631" fill="#f9fafb"/>
                  </g>
                  <path id="Path_46" data-name="Path 46" d="M-1929.249,320.789v53.4h-4.581v-53.4h4.581m1.229-1.229h-7.04v55.86h7.04V319.56Z" transform="translate(1935.059 -319.56)" fill="#f9fafb"/>
                </g>
              </g>
              <g id="Group_44" data-name="Group 44" transform="translate(0 127.4)">
                <g id="Group_43" data-name="Group 43">
                  <g id="Group_42" data-name="Group 42" transform="translate(0.614 0.615)">
                    <path id="Path_47" data-name="Path 47" d="M-1936.474,447.3c-4.159,0-6.45-2.381-6.45-6.7,0-5.052,2.877-11.152,6.45-11.152s6.45,6.1,6.45,11.152C-1930.023,444.917-1932.315,447.3-1936.474,447.3Z" transform="translate(1942.924 -429.442)" fill="#f9fafb"/>
                  </g>
                  <path id="Path_48" data-name="Path 48" d="M-1937.507,429.021c3.223,0,5.836,5.947,5.836,10.539s-2.613,6.089-5.836,6.089-5.835-1.5-5.835-6.089,2.612-10.539,5.835-10.539m0-1.229c-4.313,0-7.065,6.97-7.065,11.768,0,4.651,2.575,7.318,7.065,7.318s7.065-2.667,7.065-7.318c0-4.8-2.752-11.768-7.065-11.768Z" transform="translate(1944.572 -427.791)" fill="#f9fafb"/>
                </g>
              </g>
            </g>
          </g>
          <g id="Group_55" data-name="Group 55" transform="translate(0 66.178)">
            <g id="Group_48" data-name="Group 48" transform="translate(87.065 3.545)">
              <g id="Group_47" data-name="Group 47">
                <rect id="Rectangle_3" data-name="Rectangle 3" width="54.631" height="5.812" transform="translate(0.615 0.614)" fill="#f9fafb"/>
                <path id="Path_49" data-name="Path 49" d="M-1833.9,274.258v4.581h-53.4v-4.581h53.4m1.229-1.229h-55.86v7.04h55.86v-7.04Z" transform="translate(1888.53 -273.029)" fill="#f9fafb"/>
              </g>
            </g>
            <g id="Group_50" data-name="Group 50" transform="translate(127.401)">
              <g id="Group_49" data-name="Group 49">
                <path id="Path_50" data-name="Path 50" d="M-1767.495,278.067c-5.052,0-11.154-2.877-11.154-6.45s6.1-6.45,11.154-6.45c4.323,0,6.7,2.291,6.7,6.45S-1763.172,278.067-1767.495,278.067Z" transform="translate(1779.263 -264.551)" fill="#f9fafb"/>
                <path id="Path_51" data-name="Path 51" d="M-1768.53,264.747c4.592,0,6.089,2.612,6.089,5.836s-1.5,5.835-6.089,5.835-10.538-2.613-10.538-5.835,5.947-5.836,10.538-5.836m0-1.229c-4.8,0-11.768,2.752-11.768,7.065s6.97,7.065,11.768,7.065c4.651,0,7.319-2.575,7.319-7.065s-2.668-7.065-7.319-7.065Z" transform="translate(1780.298 -263.517)" fill="#f9fafb"/>
              </g>
            </g>
            <g id="Group_52" data-name="Group 52" transform="translate(3.562 3.545)">
              <g id="Group_51" data-name="Group 51">
                <rect id="Rectangle_4" data-name="Rectangle 4" width="54.631" height="5.812" transform="translate(0.614 0.614)" fill="#f9fafb"/>
                <path id="Path_52" data-name="Path 52" d="M-2057.958,274.258v4.581h-53.4v-4.581h53.4m1.23-1.229h-55.86v7.04h55.86v-7.04Z" transform="translate(2112.588 -273.029)" fill="#f9fafb"/>
              </g>
            </g>
            <g id="Group_54" data-name="Group 54">
              <g id="Group_53" data-name="Group 53">
                <path id="Path_53" data-name="Path 53" d="M-2113.792,278.067c-4.323,0-6.7-2.291-6.7-6.45s2.381-6.45,6.7-6.45c5.052,0,11.153,2.877,11.153,6.45S-2108.741,278.067-2113.792,278.067Z" transform="translate(2121.111 -264.551)" fill="#f9fafb"/>
                <path id="Path_54" data-name="Path 54" d="M-2114.828,264.747c4.592,0,10.539,2.612,10.539,5.836s-5.947,5.835-10.539,5.835-6.089-2.613-6.089-5.835,1.5-5.836,6.089-5.836m0-1.229c-4.651,0-7.318,2.575-7.318,7.065s2.667,7.065,7.318,7.065c4.8,0,11.768-2.752,11.768-7.065s-6.97-7.065-11.768-7.065Z" transform="translate(2122.146 -263.517)" fill="#f9fafb"/>
              </g>
            </g>
          </g>
          <g id="Group_64" data-name="Group 64" transform="translate(19.104 19.103)">
            <g id="Group_57" data-name="Group 57" transform="translate(61.365 2.379)">
              <g id="Group_56" data-name="Group 56">
                <rect id="Rectangle_5" data-name="Rectangle 5" width="54.714" height="5.81" transform="translate(0.869 39.559) rotate(-45.001)" fill="#f9fafb"/>
                <path id="Path_55" data-name="Path 55" d="M-1866.67,145.325l3.239,3.239-37.819,37.82-3.239-3.239,37.818-37.819m0-1.739-.87.869-37.819,37.819-.869.869.869.869,3.239,3.239.869.869.87-.869,37.818-37.82.87-.869-.87-.869-3.239-3.239-.869-.869Z" transform="translate(1906.227 -143.586)" fill="#f9fafb"/>
              </g>
            </g>
            <g id="Group_59" data-name="Group 59" transform="translate(91.168)">
              <g id="Group_58" data-name="Group 58">
                <path id="Path_56" data-name="Path 56" d="M-1820.445,154.736a4.148,4.148,0,0,1-3.053-1.086c-2.526-2.526-.246-8.876,3.326-12.448a6.857,6.857,0,0,1,4.78-2.348,6.425,6.425,0,0,1,4.521,2.169,6.576,6.576,0,0,1,2.162,4.254,6.7,6.7,0,0,1-2.341,5.046C-1813.607,152.88-1817.558,154.736-1820.445,154.736Z" transform="translate(1825.2 -138.239)" fill="#f9fafb"/>
                <path id="Path_57" data-name="Path 57" d="M-1816.452,138.432a5.884,5.884,0,0,1,4.086,1.989c2.279,2.279,3.068,5.185-.179,8.432-2.348,2.348-6.165,4.231-8.96,4.231a3.592,3.592,0,0,1-2.619-.906c-2.279-2.279.079-8.332,3.326-11.578a6.233,6.233,0,0,1,4.346-2.168m0-1.229h0a7.447,7.447,0,0,0-5.216,2.528,17.37,17.37,0,0,0-4.036,6.644c-.937,2.908-.685,5.278.71,6.673a4.8,4.8,0,0,0,3.488,1.266c3.035,0,7.168-1.931,9.829-4.592,3.289-3.289,3.354-7,.179-10.171a7.014,7.014,0,0,0-4.955-2.349Z" transform="translate(1826.26 -137.203)" fill="#f9fafb"/>
              </g>
            </g>
            <g id="Group_61" data-name="Group 61" transform="translate(2.379 61.424)">
              <g id="Group_60" data-name="Group 60">
                <rect id="Rectangle_6" data-name="Rectangle 6" width="54.631" height="5.81" transform="translate(0.869 39.499) rotate(-45)" fill="#f9fafb"/>
                <path id="Path_58" data-name="Path 58" d="M-2025,303.759l3.239,3.239-37.76,37.761-3.239-3.239,37.761-37.76m0-1.739-.869.87-37.761,37.76-.87.869.87.869,3.239,3.239.87.869.869-.869,37.761-37.761.869-.869-.869-.869-3.239-3.239-.87-.87Z" transform="translate(2064.503 -302.02)" fill="#f9fafb"/>
              </g>
            </g>
            <g id="Group_63" data-name="Group 63" transform="translate(0 91.169)">
              <g id="Group_62" data-name="Group 62">
                <path id="Path_59" data-name="Path 59" d="M-2062.549,399.361a6.425,6.425,0,0,1-4.521-2.168,6.577,6.577,0,0,1-2.162-4.254,6.7,6.7,0,0,1,2.341-5.047c2.557-2.556,6.508-4.413,9.395-4.413a4.148,4.148,0,0,1,3.053,1.087c2.527,2.526.247,8.876-3.324,12.448a6.862,6.862,0,0,1-4.781,2.347Z" transform="translate(2069.853 -382.865)" fill="#f9fafb"/>
                <path id="Path_60" data-name="Path 60" d="M-2058.53,383.06a3.594,3.594,0,0,1,2.619.906c2.279,2.279-.079,8.332-3.326,11.578a6.23,6.23,0,0,1-4.346,2.168,5.886,5.886,0,0,1-4.086-1.989c-2.279-2.279-3.067-5.185.179-8.432,2.348-2.348,6.165-4.232,8.959-4.232m0-1.229c-3.034,0-7.168,1.931-9.829,4.592a7.276,7.276,0,0,0-2.52,5.514,7.161,7.161,0,0,0,2.341,4.657,7.012,7.012,0,0,0,4.955,2.349,7.446,7.446,0,0,0,5.216-2.528c3.393-3.393,6.375-10.268,3.326-13.317a4.8,4.8,0,0,0-3.489-1.266Z" transform="translate(2070.886 -381.831)" fill="#f9fafb"/>
              </g>
            </g>
          </g>
          <g id="Group_73" data-name="Group 73" transform="translate(19.117 19.103)">
            <g id="Group_66" data-name="Group 66" transform="translate(61.379 61.392)">
              <g id="Group_65" data-name="Group 65">
                <rect id="Rectangle_7" data-name="Rectangle 7" width="5.81" height="54.676" transform="translate(0.872 4.975) rotate(-44.991)" fill="#f9fafb"/>
                <path id="Path_61" data-name="Path 61" d="M-1901.178,303.672l37.792,37.793-3.239,3.239-37.792-37.793,3.239-3.239m0-1.739-.869.869-3.239,3.239-.869.869.869.869,37.792,37.793.87.869.869-.869,3.239-3.239.869-.869-.869-.869-37.792-37.793-.869-.869Z" transform="translate(1906.155 -301.933)" fill="#f9fafb"/>
              </g>
            </g>
            <g id="Group_68" data-name="Group 68" transform="translate(91.153 91.169)">
              <g id="Group_67" data-name="Group 67">
                <path id="Path_62" data-name="Path 62" d="M-1815.392,399.361a6.856,6.856,0,0,1-4.78-2.347c-3.572-3.572-5.852-9.922-3.326-12.448a4.148,4.148,0,0,1,3.053-1.087c2.886,0,6.838,1.856,9.395,4.413a6.7,6.7,0,0,1,2.341,5.047,6.577,6.577,0,0,1-2.162,4.254A6.424,6.424,0,0,1-1815.392,399.361Z" transform="translate(1825.201 -382.865)" fill="#f9fafb"/>
                <path id="Path_63" data-name="Path 63" d="M-1821.508,383.06c2.795,0,6.611,1.884,8.96,4.232,3.247,3.247,2.458,6.153.179,8.432a5.885,5.885,0,0,1-4.086,1.989,6.23,6.23,0,0,1-4.346-2.168c-3.247-3.247-5.6-9.3-3.326-11.578a3.593,3.593,0,0,1,2.619-.906m0-1.229h0A4.8,4.8,0,0,0-1825,383.1c-3.049,3.049-.067,9.924,3.326,13.317a7.446,7.446,0,0,0,5.215,2.528,7.014,7.014,0,0,0,4.956-2.349c3.174-3.175,3.109-6.882-.179-10.171-2.661-2.661-6.794-4.592-9.829-4.592Z" transform="translate(1826.264 -381.831)" fill="#f9fafb"/>
              </g>
            </g>
            <g id="Group_70" data-name="Group 70" transform="translate(2.365 2.379)">
              <g id="Group_69" data-name="Group 69">
                <rect id="Rectangle_8" data-name="Rectangle 8" width="5.81" height="54.631" transform="translate(0.872 4.974) rotate(-44.991)" fill="#f9fafb"/>
                <path id="Path_64" data-name="Path 64" d="M-2059.525,145.325l37.76,37.76-3.239,3.239-37.761-37.761,3.239-3.239m0-1.739-.87.869-3.239,3.239-.87.869.87.869,37.761,37.761.869.869.87-.869,3.239-3.239.869-.869-.869-.869-37.761-37.76-.869-.869Z" transform="translate(2064.503 -143.586)" fill="#f9fafb"/>
              </g>
            </g>
            <g id="Group_72" data-name="Group 72">
              <g id="Group_71" data-name="Group 71">
                <path id="Path_65" data-name="Path 65" d="M-2057.5,154.736c-2.886,0-6.838-1.856-9.395-4.413a6.7,6.7,0,0,1-2.341-5.046,6.576,6.576,0,0,1,2.162-4.254,6.426,6.426,0,0,1,4.521-2.169,6.858,6.858,0,0,1,4.781,2.348c3.572,3.572,5.851,9.922,3.324,12.448a4.148,4.148,0,0,1-3.053,1.086Z" transform="translate(2069.839 -138.239)" fill="#f9fafb"/>
                <path id="Path_66" data-name="Path 66" d="M-2063.559,138.432a6.232,6.232,0,0,1,4.346,2.168c3.247,3.246,5.6,9.3,3.326,11.578a3.592,3.592,0,0,1-2.62.906c-2.794,0-6.611-1.883-8.959-4.231-3.246-3.247-2.458-6.153-.179-8.432a5.886,5.886,0,0,1,4.086-1.989m0-1.229a7.013,7.013,0,0,0-4.955,2.349c-3.175,3.175-3.109,6.882.179,10.171,2.661,2.661,6.794,4.592,9.829,4.592a4.8,4.8,0,0,0,3.489-1.266c1.4-1.4,1.647-3.765.71-6.673a17.373,17.373,0,0,0-4.036-6.644,7.445,7.445,0,0,0-5.216-2.528Z" transform="translate(2070.849 -137.203)" fill="#d1e1e8"/>
              </g>
            </g>
          </g>
          <g id="Group_75" data-name="Group 75" transform="translate(29.807 29.807)">
            <g id="Group_74" data-name="Group 74">
              <path id="Path_67" data-name="Path 67" d="M-1997.694,253.217a42.871,42.871,0,0,1-42.823-42.822,42.871,42.871,0,0,1,42.823-42.821,42.869,42.869,0,0,1,42.821,42.821A42.869,42.869,0,0,1-1997.694,253.217Zm0-82.122a39.346,39.346,0,0,0-39.3,39.3,39.346,39.346,0,0,0,39.3,39.3,39.345,39.345,0,0,0,39.3-39.3A39.345,39.345,0,0,0-1997.694,171.094Z" transform="translate(2041.132 -166.959)" fill="#fa8b65"/>
              <path id="Path_68" data-name="Path 68" d="M-1998.729,167.154a42.254,42.254,0,0,1,42.206,42.207,42.254,42.254,0,0,1-42.206,42.206,42.255,42.255,0,0,1-42.207-42.206,42.255,42.255,0,0,1,42.207-42.207m0,82.122a39.96,39.96,0,0,0,39.916-39.916,39.96,39.96,0,0,0-39.916-39.916,39.961,39.961,0,0,0-39.916,39.916,39.961,39.961,0,0,0,39.916,39.916m0-83.352a43.486,43.486,0,0,0-43.437,43.437,43.486,43.486,0,0,0,43.437,43.436,43.485,43.485,0,0,0,43.436-43.436,43.485,43.485,0,0,0-43.436-43.437Zm0,82.123a38.731,38.731,0,0,1-38.687-38.686,38.731,38.731,0,0,1,38.687-38.687,38.73,38.73,0,0,1,38.686,38.687,38.73,38.73,0,0,1-38.686,38.686Z" transform="translate(2042.166 -165.924)" fill="#f9fafb"/>
            </g>
          </g>
          <g id="Group_77" data-name="Group 77" transform="translate(54.672 54.673)">
            <g id="Group_76" data-name="Group 76">
              <path id="Path_69" data-name="Path 69" d="M-1955.839,270.206A17.977,17.977,0,0,1-1973.8,252.25a17.976,17.976,0,0,1,17.957-17.955,17.975,17.975,0,0,1,17.955,17.955A17.975,17.975,0,0,1-1955.839,270.206Zm0-30.1a12.16,12.16,0,0,0-12.146,12.145,12.16,12.16,0,0,0,12.146,12.145,12.159,12.159,0,0,0,12.144-12.145A12.159,12.159,0,0,0-1955.839,240.105Z" transform="translate(1974.41 -233.68)" fill="#f9fafb"/>
              <path id="Path_70" data-name="Path 70" d="M-1956.875,233.874a17.361,17.361,0,0,1,17.341,17.341,17.361,17.361,0,0,1-17.341,17.341,17.361,17.361,0,0,1-17.342-17.341,17.361,17.361,0,0,1,17.342-17.341m0,30.1a12.774,12.774,0,0,0,12.76-12.76,12.774,12.774,0,0,0-12.76-12.761,12.775,12.775,0,0,0-12.76,12.761,12.775,12.775,0,0,0,12.76,12.76m0-31.331a18.592,18.592,0,0,0-18.571,18.571,18.592,18.592,0,0,0,18.571,18.571,18.592,18.592,0,0,0,18.57-18.571,18.592,18.592,0,0,0-18.57-18.571Zm0,30.1a11.544,11.544,0,0,1-11.531-11.53,11.544,11.544,0,0,1,11.531-11.531,11.544,11.544,0,0,1,11.53,11.531,11.543,11.543,0,0,1-11.53,11.53Z" transform="translate(1975.446 -232.644)" fill="#d1e1e8"/>
            </g>
          </g>
        </g>
      </g>
    </g>
    <g id="Group_132" data-name="Group 132" transform="translate(-2259.64 -1.233)">
      <g id="Group_81" data-name="Group 81" transform="translate(10.463)">
        <path id="Path_71" data-name="Path 71" d="M-2176.491,157.588c-5.63-2.441-6.408-8.4-12.047-10.823.759-1.756,1.137-2.633,1.892-4.385,5.626,2.428,6.419,8.374,12.052,10.823C-2175.35,154.955-2175.734,155.832-2176.491,157.588Z" transform="translate(2188.538 -142.381)" fill="#fa8b65"/>
      </g>
      <g id="Group_82" data-name="Group 82" transform="translate(7.131 7.86)">
        <path id="Path_72" data-name="Path 72" d="M-2184.621,177.833c-5.8-1.987-7.039-7.867-12.86-9.844.618-1.81.929-2.711,1.543-4.52,5.8,1.981,7.06,7.852,12.864,9.842C-2183.691,175.119-2184,176.026-2184.621,177.833Z" transform="translate(2197.481 -163.47)" fill="#fa8b65"/>
      </g>
      <g id="Group_83" data-name="Group 83" transform="translate(4.436 15.984)">
        <path id="Path_73" data-name="Path 73" d="M-2191.118,198.7c-5.946-1.528-7.64-7.293-13.594-8.8.474-1.855.713-2.778,1.183-4.627,5.938,1.517,7.65,7.271,13.6,8.8C-2190.4,195.924-2190.646,196.85-2191.118,198.7Z" transform="translate(2204.712 -185.271)" fill="#fa8b65"/>
      </g>
      <g id="Group_84" data-name="Group 84" transform="translate(2.395 24.323)">
        <path id="Path_74" data-name="Path 74" d="M-2195.944,220.064c-6.049-1.058-8.184-6.669-14.244-7.712.327-1.884.494-2.824.817-4.705,6.043,1.047,8.2,6.647,14.245,7.708C-2195.451,217.236-2195.618,218.179-2195.944,220.064Z" transform="translate(2210.187 -207.647)" fill="#fa8b65"/>
      </g>
      <g id="Group_85" data-name="Group 85" transform="translate(1.022 32.826)">
        <path id="Path_75" data-name="Path 75" d="M-2199.069,241.785c-6.105-.575-8.684-6.007-14.8-6.567.177-1.9.271-2.856.445-4.756,6.11.565,8.693,5.985,14.807,6.567C-2198.8,238.93-2198.89,239.882-2199.069,241.785Z" transform="translate(2213.872 -230.462)" fill="#fa8b65"/>
      </g>
      <g id="Group_86" data-name="Group 86" transform="translate(0.323 41.438)">
        <path id="Path_76" data-name="Path 76" d="M-2200.473,263.733c-6.135-.094-9.134-5.308-15.273-5.386.026-1.912.046-2.867.071-4.777,6.138.091,9.139,5.291,15.276,5.385C-2200.427,260.866-2200.445,261.822-2200.473,263.733Z" transform="translate(2215.746 -253.57)" fill="#fa8b65"/>
      </g>
      <g id="Group_87" data-name="Group 87" transform="translate(0 50.088)">
        <path id="Path_77" data-name="Path 77" d="M-2200.66,285.739c-6.129.4-9.523-4.578-15.649-4.17-.124-1.909-.18-2.861-.305-4.766,6.124-.4,9.532,4.55,15.651,4.168C-2200.841,282.877-2200.782,283.832-2200.66,285.739Z" transform="translate(2216.614 -276.779)" fill="#fa8b65"/>
      </g>
      <g id="Group_88" data-name="Group 88" transform="translate(0.288 58.674)">
        <path id="Path_78" data-name="Path 78" d="M-2199.237,307.588c-6.077.872-9.848-3.813-15.928-2.931-.271-1.891-.4-2.839-.677-4.729,6.075-.872,9.859,3.794,15.93,2.931C-2199.641,304.747-2199.507,305.694-2199.237,307.588Z" transform="translate(2215.842 -299.818)" fill="#fa8b65"/>
      </g>
      <g id="Group_89" data-name="Group 89" transform="translate(1.256 67.147)">
        <path id="Path_79" data-name="Path 79" d="M-2196.089,329.149c-5.986,1.338-10.127-3.035-16.107-1.672-.424-1.867-.624-2.8-1.047-4.662,5.977-1.349,10.131,3.006,16.109,1.672C-2196.714,326.347-2196.508,327.284-2196.089,329.149Z" transform="translate(2213.243 -322.552)" fill="#fa8b65"/>
      </g>
      <g id="Group_90" data-name="Group 90" transform="translate(2.898 75.451)">
        <path id="Path_80" data-name="Path 80" d="M-2191.242,350.284c-5.863,1.807-10.333-2.222-16.188-.4-.569-1.829-.841-2.743-1.409-4.565,5.866-1.81,10.333,2.2,16.191.4C-2192.086,347.542-2191.806,348.46-2191.242,350.284Z" transform="translate(2208.839 -344.836)" fill="#fa8b65"/>
      </g>
      <g id="Group_91" data-name="Group 91" transform="translate(5.202 83.432)">
        <path id="Path_81" data-name="Path 81" d="M-2184.723,370.689c-5.7,2.262-10.475-1.4-16.169.869-.711-1.777-1.053-2.667-1.763-4.438,5.7-2.265,10.465,1.38,16.176-.869C-2185.779,368.023-2185.427,368.915-2184.723,370.689Z" transform="translate(2202.655 -366.251)" fill="#fa8b65"/>
      </g>
      <g id="Group_92" data-name="Group 92" transform="translate(8.158 90.328)">
        <path id="Path_82" data-name="Path 82" d="M-2176.568,389.039c-5.506,2.706-10.555-.57-16.051,2.134-.85-1.716-1.26-2.576-2.1-4.284,5.5-2.7,10.548.555,16.055-2.136C-2177.83,386.463-2177.408,387.326-2176.568,389.039Z" transform="translate(2194.724 -384.753)" fill="#fa8b65"/>
      </g>
      <g id="Group_93" data-name="Group 93" transform="translate(11.745 96.98)">
        <path id="Path_83" data-name="Path 83" d="M-2166.832,406.71c-5.279,3.131-10.576.26-15.833,3.387-.984-1.644-1.462-2.47-2.435-4.105,5.27-3.135,10.559-.277,15.836-3.389C-2168.29,404.241-2167.8,405.068-2166.832,406.71Z" transform="translate(2185.1 -402.603)" fill="#fa8b65"/>
      </g>
      <g id="Group_94" data-name="Group 94" transform="translate(15.938 103.347)">
        <path id="Path_84" data-name="Path 84" d="M-2155.58,423.59c-5.011,3.542-10.518,1.085-15.518,4.618-1.107-1.56-1.65-2.348-2.751-3.9,5.012-3.54,10.516-1.106,15.521-4.619C-2157.228,421.241-2156.674,422.03-2155.58,423.59Z" transform="translate(2173.849 -419.687)" fill="#fa8b65"/>
      </g>
      <g id="Group_95" data-name="Group 95" transform="translate(20.714 109.39)">
        <path id="Path_85" data-name="Path 85" d="M-2142.874,439.579c-4.723,3.914-10.4,1.9-15.109,5.821-1.226-1.468-1.828-2.211-3.05-3.674,4.727-3.925,10.4-1.935,15.113-5.823C-2144.7,437.365-2144.089,438.108-2142.874,439.579Z" transform="translate(2161.032 -435.903)" fill="#fa8b65"/>
      </g>
      <g id="Group_96" data-name="Group 96" transform="translate(26.048 115.071)">
        <path id="Path_86" data-name="Path 86" d="M-2128.787,454.569c-4.407,4.281-10.224,2.717-14.6,6.991-1.34-1.366-2-2.06-3.329-3.423,4.4-4.282,10.216-2.745,14.609-6.991C-2130.784,452.51-2130.116,453.2-2128.787,454.569Z" transform="translate(2146.721 -451.146)" fill="#fa8b65"/>
      </g>
      <g id="Group_97" data-name="Group 97" transform="translate(31.901 120.356)">
        <path id="Path_87" data-name="Path 87" d="M-2113.416,468.481c-4.053,4.609-9.972,3.507-14.014,8.115-1.439-1.259-2.152-1.9-3.584-3.155,4.052-4.608,9.966-3.533,14.013-8.114C-2115.57,466.58-2114.85,467.219-2113.416,468.481Z" transform="translate(2131.015 -465.327)" fill="#fa8b65"/>
      </g>
      <g id="Group_98" data-name="Group 98" transform="translate(38.239 125.211)">
        <path id="Path_88" data-name="Path 88" d="M-2096.855,481.217c-3.678,4.915-9.668,4.277-13.334,9.187-1.533-1.138-2.294-1.72-3.82-2.861,3.677-4.91,9.651-4.309,13.334-9.19C-2099.15,479.493-2098.381,480.071-2096.855,481.217Z" transform="translate(2114.009 -478.354)" fill="#fa8b65"/>
      </g>
      <g id="Group_99" data-name="Group 99" transform="translate(45.02 129.609)">
        <path id="Path_89" data-name="Path 89" d="M-2079.208,492.708c-3.272,5.188-9.3,5.028-12.571,10.206-1.618-1.014-2.421-1.534-4.036-2.554,3.283-5.181,9.288-5.053,12.575-10.206C-2081.629,491.168-2080.819,491.686-2079.208,492.708Z" transform="translate(2095.815 -490.154)" fill="#fa8b65"/>
      </g>
      <g id="Group_100" data-name="Group 100" transform="translate(52.21 133.518)">
        <path id="Path_90" data-name="Path 90" d="M-2060.569,502.875c-2.867,5.429-8.876,5.74-11.732,11.16-1.693-.883-2.535-1.342-4.22-2.23,2.861-5.419,8.859-5.765,11.733-11.163C-2063.1,501.53-2062.26,501.983-2060.569,502.875Z" transform="translate(2076.521 -500.643)" fill="#fa8b65"/>
      </g>
      <g id="Group_101" data-name="Group 101" transform="translate(59.757 136.921)">
        <path id="Path_91" data-name="Path 91" d="M-2041.068,511.665c-2.428,5.644-8.388,6.418-10.822,12.048-1.754-.751-2.628-1.14-4.38-1.893,2.426-5.628,8.379-6.449,10.819-12.047C-2043.7,510.524-2042.822,510.91-2041.068,511.665Z" transform="translate(2056.27 -509.774)" fill="#fa8b65"/>
      </g>
      <g id="Group_102" data-name="Group 102" transform="translate(67.616 139.791)">
        <path id="Path_92" data-name="Path 92" d="M-2020.824,519.018c-1.984,5.815-7.868,7.057-9.842,12.859-1.81-.609-2.712-.929-4.518-1.542,1.984-5.81,7.845-7.09,9.843-12.859C-2023.537,518.083-2022.634,518.4-2020.824,519.018Z" transform="translate(2035.184 -517.475)" fill="#fa8b65"/>
      </g>
      <g id="Group_103" data-name="Group 103" transform="translate(75.739 142.112)">
        <path id="Path_93" data-name="Path 93" d="M-1999.959,524.888c-1.514,5.954-7.281,7.655-8.8,13.592-1.849-.466-2.776-.715-4.626-1.183,1.529-5.95,7.27-7.685,8.805-13.593C-2002.74,524.169-2001.811,524.411-1999.959,524.888Z" transform="translate(2013.388 -523.704)" fill="#fa8b65"/>
      </g>
      <g id="Group_104" data-name="Group 104" transform="translate(84.079 143.87)">
        <path id="Path_94" data-name="Path 94" d="M-1978.6,529.237c-1.044,6.053-6.668,8.2-7.709,14.241-1.882-.319-2.824-.494-4.705-.817,1.052-6.053,6.649-8.227,7.709-14.241C-1981.424,528.739-1980.478,528.909-1978.6,529.237Z" transform="translate(1991.009 -528.42)" fill="#fa8b65"/>
      </g>
      <g id="Group_105" data-name="Group 105" transform="translate(92.582 145.057)">
        <path id="Path_95" data-name="Path 95" d="M-1956.872,532.049c-.571,6.112-6,8.7-6.569,14.8-1.9-.17-2.857-.272-4.754-.445.575-6.118,5.975-8.727,6.569-14.8C-1959.731,531.772-1958.774,531.867-1956.872,532.049Z" transform="translate(1968.194 -531.604)" fill="#fa8b65"/>
      </g>
      <g id="Group_106" data-name="Group 106" transform="translate(101.194 145.658)">
        <path id="Path_96" data-name="Path 96" d="M-1934.925,533.289c-.085,6.139-5.3,9.145-5.385,15.271-1.91-.023-2.87-.045-4.777-.071.1-6.141,5.271-9.169,5.388-15.271C-1937.8,533.24-1936.834,533.258-1934.925,533.289Z" transform="translate(1945.086 -533.218)" fill="#fa8b65"/>
      </g>
      <g id="Group_107" data-name="Group 107" transform="translate(109.845 145.374)">
        <path id="Path_97" data-name="Path 97" d="M-1912.915,532.455c.393,6.125-4.568,9.53-4.172,15.647-1.9.128-2.864.178-4.765.3-.388-6.129,4.536-9.553,4.171-15.646C-1915.782,532.631-1914.822,532.574-1912.915,532.455Z" transform="translate(1921.874 -532.455)" fill="#fa8b65"/>
      </g>
      <g id="Group_108" data-name="Group 108" transform="translate(118.431 144.434)">
        <path id="Path_98" data-name="Path 98" d="M-1891.068,529.934c.874,6.068-3.811,9.862-2.93,15.924-1.89.279-2.843.4-4.727.678-.872-6.086,3.771-9.884,2.931-15.925C-1893.912,530.334-1892.958,530.2-1891.068,529.934Z" transform="translate(1898.834 -529.934)" fill="#fa8b65"/>
      </g>
      <g id="Group_109" data-name="Group 109" transform="translate(126.905 142.918)">
        <path id="Path_99" data-name="Path 99" d="M-1869.5,525.867c1.348,5.98-3.029,10.127-1.672,16.1-1.863.425-2.8.625-4.66,1.044-1.34-5.993,2.984-10.143,1.672-16.105C-1872.306,526.486-1871.369,526.279-1869.5,525.867Z" transform="translate(1876.096 -525.867)" fill="#fa8b65"/>
      </g>
      <g id="Group_110" data-name="Group 110" transform="translate(135.209 140.833)">
        <path id="Path_100" data-name="Path 100" d="M-1848.369,520.271c1.812,5.853-2.221,10.333-.4,16.187-1.825.568-2.743.843-4.563,1.405-1.807-5.87,2.19-10.349.4-16.186C-1851.116,521.106-1850.2,520.828-1848.369,520.271Z" transform="translate(1853.815 -520.271)" fill="#fa8b65"/>
      </g>
      <g id="Group_111" data-name="Group 111" transform="translate(143.188 138.192)">
        <path id="Path_101" data-name="Path 101" d="M-1827.966,513.185c2.269,5.7-1.4,10.48.87,16.168-1.774.71-2.669,1.056-4.438,1.76-2.263-5.71,1.367-10.485-.87-16.167C-1830.638,514.233-1829.742,513.885-1827.966,513.185Z" transform="translate(1832.404 -513.185)" fill="#fa8b65"/>
      </g>
      <g id="Group_112" data-name="Group 112" transform="translate(150.086 135.014)">
        <path id="Path_102" data-name="Path 102" d="M-1809.612,504.657c2.714,5.5-.578,10.549,2.135,16.05-1.712.847-2.576,1.262-4.287,2.1-2.7-5.51.535-10.56-2.134-16.047C-1812.2,505.91-1811.332,505.494-1809.612,504.657Z" transform="translate(1813.897 -504.657)" fill="#fa8b65"/>
      </g>
      <g id="Group_113" data-name="Group 113" transform="translate(156.737 131.315)">
        <path id="Path_103" data-name="Path 103" d="M-1791.942,494.732c3.135,5.273.26,10.565,3.386,15.832-1.638.981-2.469,1.463-4.108,2.431-3.125-5.275-.3-10.569-3.386-15.83C-1794.42,496.183-1793.59,495.7-1791.942,494.732Z" transform="translate(1796.05 -494.732)" fill="#fa8b65"/>
      </g>
      <g id="Group_114" data-name="Group 114" transform="translate(163.104 127.119)">
        <path id="Path_104" data-name="Path 104" d="M-1775.061,483.472c3.54,5.008,1.09,10.519,4.619,15.519-1.557,1.106-2.346,1.651-3.907,2.745-3.52-5.014-1.126-10.507-4.615-15.517C-1777.416,485.113-1776.628,484.57-1775.061,483.472Z" transform="translate(1778.964 -483.472)" fill="#fa8b65"/>
      </g>
      <g id="Group_115" data-name="Group 115" transform="translate(169.146 122.454)">
        <path id="Path_105" data-name="Path 105" d="M-1759.075,470.955c3.916,4.711,1.915,10.395,5.821,15.11-1.464,1.224-2.21,1.828-3.679,3.041-3.9-4.714-1.945-10.381-5.819-15.107C-1761.295,472.775-1760.552,472.17-1759.075,470.955Z" transform="translate(1762.753 -470.955)" fill="#fa8b65"/>
      </g>
      <g id="Group_116" data-name="Group 116" transform="translate(174.828 117.347)">
        <path id="Path_106" data-name="Path 106" d="M-1744.082,457.253c4.282,4.383,2.719,10.209,6.992,14.6-1.366,1.336-2.062,2-3.43,3.321-4.265-4.4-2.762-10.2-6.987-14.6C-1746.149,459.241-1745.458,458.581-1744.082,457.253Z" transform="translate(1747.507 -457.253)" fill="#fa8b65"/>
      </g>
      <g id="Group_117" data-name="Group 117" transform="translate(180.112 111.829)">
        <path id="Path_107" data-name="Path 107" d="M-1730.173,442.446c4.61,4.029,3.511,9.963,8.114,14.011-1.253,1.44-1.9,2.152-3.155,3.58-4.6-4.04-3.552-9.951-8.113-14.011C-1732.078,444.589-1731.44,443.878-1730.173,442.446Z" transform="translate(1733.328 -442.446)" fill="#fa8b65"/>
      </g>
      <g id="Group_118" data-name="Group 118" transform="translate(184.968 105.936)">
        <path id="Path_108" data-name="Path 108" d="M-1717.433,426.633c4.912,3.649,4.284,9.658,9.188,13.33-1.14,1.537-1.725,2.295-2.865,3.817-4.908-3.671-4.325-9.642-9.189-13.332C-1719.168,428.918-1718.587,428.157-1717.433,426.633Z" transform="translate(1720.299 -426.633)" fill="#fa8b65"/>
      </g>
      <g id="Group_119" data-name="Group 119" transform="translate(189.366 99.7)">
        <path id="Path_109" data-name="Path 109" d="M-1705.942,409.9c5.181,3.258,5.025,9.288,10.2,12.571-1.015,1.62-1.54,2.422-2.556,4.028-5.183-3.274-5.066-9.278-10.206-12.567C-1707.491,412.316-1706.97,411.513-1705.942,409.9Z" transform="translate(1708.499 -409.901)" fill="#fa8b65"/>
      </g>
      <g id="Group_120" data-name="Group 120" transform="translate(193.276 93.165)">
        <path id="Path_110" data-name="Path 110" d="M-1695.773,392.366c5.419,2.838,5.736,8.863,11.16,11.731-.885,1.693-1.344,2.536-2.233,4.218-5.416-2.859-5.778-8.85-11.16-11.73C-1697.129,394.9-1696.672,394.054-1695.773,392.366Z" transform="translate(1698.006 -392.366)" fill="#fa8b65"/>
      </g>
      <g id="Group_121" data-name="Group 121" transform="translate(196.676 86.368)">
        <path id="Path_111" data-name="Path 111" d="M-1686.985,374.127c5.619,2.4,6.411,8.382,12.044,10.819-.749,1.76-1.142,2.633-1.893,4.379-5.634-2.428-6.456-8.372-12.049-10.816C-1688.14,376.754-1687.751,375.882-1686.985,374.127Z" transform="translate(1688.883 -374.127)" fill="#fa8b65"/>
      </g>
      <g id="Group_122" data-name="Group 122" transform="translate(199.546 79.352)">
        <path id="Path_112" data-name="Path 112" d="M-1679.635,355.3c5.79,1.944,7.051,7.846,12.857,9.841-.609,1.811-.93,2.713-1.546,4.514-5.8-1.981-7.093-7.842-12.858-9.838C-1680.581,358.011-1680.258,357.11-1679.635,355.3Z" transform="translate(1681.181 -355.303)" fill="#fa8b65"/>
      </g>
      <g id="Group_123" data-name="Group 123" transform="translate(201.869 72.159)">
        <path id="Path_113" data-name="Path 113" d="M-1673.763,336c5.932,1.494,7.642,7.266,13.59,8.8-.465,1.851-.716,2.776-1.186,4.62-5.94-1.518-7.69-7.257-13.591-8.8C-1674.49,338.773-1674.244,337.852-1673.763,336Z" transform="translate(1674.949 -336.001)" fill="#fa8b65"/>
      </g>
      <g id="Group_124" data-name="Group 124" transform="translate(203.628 64.836)">
        <path id="Path_114" data-name="Path 114" d="M-1669.41,316.351c6.031,1.014,8.2,6.643,14.238,7.708-.317,1.884-.5,2.825-.821,4.7-6.037-1.043-8.232-6.63-14.236-7.706C-1669.917,319.173-1669.743,318.232-1669.41,316.351Z" transform="translate(1670.229 -316.351)" fill="#fa8b65"/>
      </g>
      <g id="Group_125" data-name="Group 125" transform="translate(204.813 57.424)">
        <path id="Path_115" data-name="Path 115" d="M-1666.6,296.463c6.092.54,8.684,5.972,14.8,6.569-.169,1.9-.275,2.854-.446,4.75-6.118-.571-8.73-5.969-14.8-6.566C-1666.886,299.317-1666.788,298.365-1666.6,296.463Z" transform="translate(1667.05 -296.463)" fill="#fa8b65"/>
      </g>
      <g id="Group_126" data-name="Group 126" transform="translate(205.416 49.973)">
        <path id="Path_116" data-name="Path 116" d="M-1665.359,276.47c6.117.052,9.123,5.268,15.27,5.386-.02,1.91-.048,2.869-.073,4.77-6.14-.094-9.172-5.264-15.27-5.385C-1665.421,279.336-1665.393,278.38-1665.359,276.47Z" transform="translate(1665.432 -276.47)" fill="#fa8b65"/>
      </g>
      <g id="Group_127" data-name="Group 127" transform="translate(205.132 42.499)">
        <path id="Path_117" data-name="Path 117" d="M-1666.193,256.444c6.107-.433,9.512,4.543,15.644,4.17.133,1.905.179,2.862.3,4.763-6.12.383-9.553-4.529-15.643-4.172C-1666.028,259.305-1666.079,258.351-1666.193,256.444Z" transform="translate(1666.193 -256.417)" fill="#fa8b65"/>
      </g>
      <g id="Group_128" data-name="Group 128" transform="translate(204.193 35.012)">
        <path id="Path_118" data-name="Path 118" d="M-1668.712,236.444c6.053-.907,9.84,3.777,15.922,2.932.283,1.889.4,2.839.677,4.723-6.083.869-9.877-3.766-15.924-2.932C-1668.323,239.283-1668.45,238.336-1668.712,236.444Z" transform="translate(1668.712 -236.327)" fill="#fa8b65"/>
      </g>
      <g id="Group_129" data-name="Group 129" transform="translate(202.677 27.558)">
        <path id="Path_119" data-name="Path 119" d="M-1672.78,216.6c5.953-1.376,10.106,3,16.1,1.673.433,1.861.626,2.8,1.044,4.654-5.991,1.347-10.145-2.976-16.1-1.671C-1672.169,219.4-1672.37,218.464-1672.78,216.6Z" transform="translate(1672.78 -216.327)" fill="#fa8b65"/>
      </g>
      <g id="Group_130" data-name="Group 130" transform="translate(200.592 20.177)">
        <path id="Path_120" data-name="Path 120" d="M-1678.375,197.015c5.83-1.84,10.306,2.189,16.183.406.574,1.822.842,2.739,1.405,4.558-5.868,1.811-10.344-2.173-16.184-.4C-1677.547,199.76-1677.822,198.842-1678.375,197.015Z" transform="translate(1678.375 -196.521)" fill="#fa8b65"/>
      </g>
      <g id="Group_131" data-name="Group 131" transform="translate(197.952 12.832)">
        <path id="Path_121" data-name="Path 121" d="M-1685.459,177.678c5.669-2.289,10.436,1.377,16.166-.866.717,1.772,1.052,2.668,1.756,4.436-5.7,2.259-10.482-1.35-16.166.866C-1684.419,180.35-1684.765,179.456-1685.459,177.678Z" transform="translate(1685.459 -176.812)" fill="#fa8b65"/>
      </g>
    </g>
  </g>
</svg>
